<?xml version="1.0" standalone="no"?>
<!DOCTYPE svg PUBLIC "-//W3C//DTD SVG 20010904//EN"
 "http://www.w3.org/TR/2001/REC-SVG-20010904/DTD/svg10.dtd">
<svg version="1.0" xmlns="http://www.w3.org/2000/svg"
 width="12984.000000pt" height="13127.000000pt" viewBox="0 0 12984.000000 13127.000000"
 preserveAspectRatio="xMidYMid meet">

<g transform="translate(0.000000,13127.000000) scale(0.100000,-0.100000)"
fill="#000000" stroke="none">
<path d="M64160 128084 c-967 -17 -1530 -34 -2190 -69 -8004 -424 -15783
-2346 -23044 -5694 -1095 -505 -2413 -1164 -3496 -1749 -3048 -1644 -5990
-3566 -8730 -5701 -3468 -2702 -6673 -5798 -9496 -9171 -3457 -4130 -6363
-8678 -8651 -13540 -3568 -7580 -5581 -15831 -5908 -24210 -35 -900 -40 -1215
-40 -2445 0 -1185 5 -1482 35 -2305 357 -9585 2896 -18925 7438 -27360 3143
-5837 7204 -11150 12017 -15721 6043 -5739 13188 -10218 20995 -13161 6421
-2421 13166 -3768 20015 -3998 1241 -41 2909 -42 4135 0 7032 239 13910 1638
20475 4167 2504 964 5014 2126 7395 3421 4153 2259 8069 5008 11605 8146 1561
1386 3117 2914 4531 4451 5416 5890 9661 12783 12486 20275 2344 6217 3684
12750 3973 19365 47 1089 58 1749 52 3065 -5 1093 -10 1322 -42 2130 -378
9516 -2930 18845 -7447 27230 -1530 2838 -3314 5611 -5256 8165 -4848 6375
-10829 11728 -17702 15842 -2621 1569 -5385 2957 -8210 4125 -4538 1876 -9349
3231 -14130 3982 -2754 433 -5245 661 -8140 747 -330 9 -2305 19 -2670 13z
m1195 -12034 c397 -46 737 -143 1070 -305 356 -173 666 -395 945 -674 321
-322 466 -549 890 -1393 l210 -417 0 -16705 0 -16706 -3462 0 -3461 0 7 4398
c17 11274 50 22443 76 26207 5 759 13 1871 16 2472 l7 1092 218 272 c119 149
270 332 336 407 160 185 440 464 597 594 532 444 1235 718 1976 772 92 6 479
-3 575 -14z m10450 -4533 c156 -20 225 -32 365 -67 767 -193 1450 -717 1997
-1535 109 -164 238 -386 397 -685 l156 -296 0 -18861 0 -18861 -171 -219
c-417 -531 -604 -702 -959 -879 -430 -213 -781 -278 -1780 -329 -58 -3 -305
-12 -550 -20 -900 -30 -1287 -56 -1415 -96 -213 -65 -252 -176 -285 -804 -22
-415 -29 -970 -41 -3050 -17 -3001 3 -7774 41 -9600 39 -1925 87 -3108 130
-3221 19 -48 124 -26 318 66 359 171 1106 695 1766 1239 464 383 854 738 1321
1206 1081 1080 1843 2054 2620 3350 733 1221 1245 2403 1751 4035 152 490 379
1297 603 2150 l30 115 31 4890 c16 2690 37 5986 45 7325 110 18042 148 20933
285 21882 28 191 61 313 118 431 155 324 512 767 850 1055 336 286 988 600
1427 686 345 68 953 82 1342 30 539 -70 1144 -351 1628 -756 202 -168 442
-432 573 -628 130 -197 317 -550 568 -1075 l176 -370 -11 -3485 c-58 -17597
-94 -24010 -151 -27260 -49 -2774 -119 -3979 -291 -5002 -431 -2579 -2181
-6581 -4046 -9256 -867 -1244 -2130 -2652 -3448 -3846 -1259 -1140 -2651
-2176 -4035 -3003 -1463 -873 -3610 -1802 -5270 -2278 -545 -156 -989 -250
-1385 -291 -241 -26 -837 -26 -1045 -1 -343 42 -563 108 -876 262 -517 255
-979 677 -1363 1245 -290 428 -395 665 -451 1015 -77 479 -110 1621 -141 4905
-27 2811 -19 18907 11 21550 25 2195 62 2806 185 3057 39 79 173 237 258 304
250 198 602 235 2867 299 1245 35 1790 56 1804 70 39 38 45 884 56 7660 11
7567 25 12792 50 19516 l19 5030 202 325 c336 541 503 784 706 1028 345 415
767 703 1345 920 241 90 373 119 653 141 169 13 877 4 1020 -13z m-20844
-3578 c413 -32 696 -112 1083 -306 434 -217 890 -549 1124 -817 304 -348 545
-741 643 -1046 104 -324 142 -805 169 -2130 31 -1516 46 -4997 60 -13595 5
-3338 12 -7672 16 -9631 l7 -3561 126 -6 c69 -4 394 -7 721 -7 327 0 1047 -5
1600 -10 1762 -17 1863 -28 2172 -238 125 -86 382 -292 498 -400 l84 -79 -22
-7514 c-13 -4133 -34 -10695 -47 -14584 -14 -3888 -25 -7199 -25 -7356 l0
-286 -242 -364 c-450 -676 -595 -848 -917 -1088 -323 -241 -946 -557 -1351
-685 -127 -40 -306 -78 -460 -98 -155 -19 -553 -16 -710 5 -569 80 -1530 348
-2565 717 -4482 1597 -8375 4457 -11231 8250 -938 1245 -1717 2509 -2423 3930
-653 1312 -1036 2322 -1496 3940 -600 2113 -699 2750 -795 5115 -111 2765
-185 6166 -220 10125 -28 3260 -24 5762 21 11485 l22 2810 130 230 c530 939
844 1327 1337 1651 492 323 1005 497 1640 555 172 16 706 16 875 0 414 -38
682 -116 1065 -307 483 -242 776 -493 1132 -974 126 -169 268 -385 517 -782
l221 -354 0 -574 c0 -539 4 -1142 30 -4695 27 -3724 41 -5535 75 -9700 70
-8681 117 -10459 300 -11452 129 -697 537 -1946 994 -3042 394 -945 750 -1639
1270 -2476 667 -1074 1519 -2185 2185 -2850 801 -799 2295 -2042 3076 -2561
145 -96 492 -294 516 -294 15 0 42 126 54 245 62 649 96 3554 120 10340 5
1513 12 3545 16 4518 l7 1767 -654 0 c-1456 1 -2182 37 -2729 136 -730 132
-1167 396 -1470 889 -231 375 -289 813 -320 2395 -53 2720 -51 10056 5 25472
l25 6827 187 298 c231 370 316 498 458 688 214 288 469 569 665 732 242 201
759 476 1125 598 369 122 874 178 1306 144z m11944 -72939 c954 -88 1723 -617
2009 -1382 163 -436 199 -1113 226 -4193 12 -1491 49 -9841 50 -11427 l0 -148
-879 0 -879 0 -5 6103 c-4 5905 -8 6614 -37 7497 -29 891 -73 1279 -175 1528
-68 166 -149 256 -263 293 -122 39 -481 35 -621 -7 -72 -21 -147 -97 -195
-197 -90 -187 -158 -563 -200 -1107 -40 -504 -65 -3282 -86 -9340 -5 -1631
-13 -3371 -16 -3867 l-6 -903 -839 0 -839 0 0 553 c0 652 -16 4426 -30 7292
-26 5078 -61 6691 -157 7120 -8 39 -27 95 -42 125 -33 70 -127 170 -200 214
-141 86 -372 131 -641 124 -183 -4 -203 -11 -291 -102 -156 -160 -245 -487
-314 -1150 -34 -334 -50 -1395 -65 -4506 -10 -2178 -30 -8119 -30 -9107 l0
-563 -850 0 -850 0 0 3553 c1 7472 38 10676 136 11607 47 444 151 694 446
1072 417 533 831 807 1343 890 104 16 681 17 865 0 374 -34 544 -79 1061 -281
274 -106 345 -124 474 -119 123 5 219 36 515 166 113 49 250 105 305 125 187
66 437 119 655 140 81 8 323 6 425 -3z m10755 -105 c315 -18 467 -33 494 -47
136 -70 156 -271 191 -1963 37 -1761 75 -2580 128 -2744 15 -45 48 -53 84 -19
96 90 845 1464 1903 3493 425 815 628 1177 683 1219 60 46 107 49 562 42 536
-8 796 -25 877 -57 81 -32 49 -160 -144 -577 -45 -97 -445 -904 -888 -1792
-782 -1568 -984 -1978 -1136 -2318 -100 -222 -182 -428 -190 -480 -6 -38 -4
-46 21 -72 54 -56 224 -110 350 -110 265 0 625 -215 1039 -620 470 -460 780
-948 877 -1383 133 -600 168 -1698 199 -6272 5 -803 12 -1884 16 -2402 l7
-943 -855 0 -855 0 -7 398 c-3 218 -11 638 -16 932 -12 679 -26 1727 -45 3370
-15 1329 -28 2041 -45 2585 -57 1768 -171 2369 -494 2599 -123 88 -254 134
-444 157 -117 14 -1590 25 -1602 13 -5 -5 -11 -2047 -14 -4539 -4 -2491 -9
-4752 -12 -5022 l-6 -493 -851 0 -850 0 7 5018 c8 6081 23 8888 56 10762 11
613 28 1141 38 1216 7 48 8 49 52 61 56 16 499 10 870 -12z m-25403 -32 l232
-6 20 -76 c95 -355 124 -1235 171 -5176 41 -3475 93 -6642 108 -6656 4 -3 77
-14 162 -24 316 -35 469 -98 518 -212 79 -187 95 -844 26 -1118 -49 -196 -136
-268 -434 -356 -163 -49 -221 -81 -262 -149 -88 -144 -103 -392 -113 -1915 -3
-506 -8 -1011 -11 -1122 l-6 -203 -839 0 -838 0 -5 33 c-3 17 -10 140 -16 272
-6 132 -15 335 -20 450 -13 290 -28 778 -40 1300 -26 1122 -38 1273 -107 1304
-67 31 -555 50 -2008 81 -827 18 -1978 60 -1992 73 -6 7 26 963 37 1097 14
166 28 256 61 420 132 636 778 2978 1364 4946 538 1803 2086 6908 2100 6922
15 16 447 60 855 87 479 32 693 38 1037 28z"/>
<path d="M50799 30243 c-319 -764 -2023 -6049 -2260 -7013 -34 -136 -33 -178
2 -216 87 -93 381 -113 1861 -130 l587 -6 -5 278 c-2 154 -11 1033 -19 1954
-29 3278 -43 4298 -65 4790 -10 217 -24 373 -36 405 -13 32 -33 12 -65 -62z"/>
</g>
</svg>
